<svg xmlns="http://www.w3.org/2000/svg" viewBox="0 0 154.7 43.7" enable-background="new 0 0 154.7 43.7"><path fill-rule="evenodd" clip-rule="evenodd" fill="#fff" d="M122.9 29.8l4.8-12.3h5.3l-9 19.9h-2.9l-8.9-19.9h5.3l5.4 12.3zm-17.3-2.7c0-1.8-.5-3.3-1.5-4.5-1-1.2-2.3-1.8-3.9-1.8s-2.9.6-3.9 1.7-1.5 2.6-1.5 4.5.5 3.4 1.5 4.5c1 1.2 2.3 1.7 3.9 1.7s2.9-.6 3.9-1.7c1-.9 1.5-2.4 1.5-4.4zm4.1 9.8H105v-1.8c-1.4 1.6-3.4 2.4-6.2 2.4-2.7 0-4.9-1.1-6.5-3.2-1.6-2.1-2.4-4.6-2.4-7.4 0-2.8.8-5.2 2.5-7.2s3.8-3 6.4-3c2.8 0 4.9.8 6.3 2.5v-1.8h4.7v19.5zM148.5 25c0-1.3-.4-2.5-1.3-3.6-.8-1-1.9-1.5-3.3-1.5-1.3 0-2.4.5-3.3 1.6-.8 1.1-1.3 2.2-1.3 3.5h9.2zm-9.2 2.6c0 1.9.4 3.4 1.2 4.6.8 1.2 2 1.8 3.4 1.8 2.3 0 3.7-1.1 4.3-3.4l4.5.7c-1.5 4-4.4 6.1-8.9 6.1-3 0-5.3-.9-7.1-2.8-1.8-1.9-2.6-4.4-2.6-7.4 0-3.2.8-5.8 2.5-7.7 1.7-1.9 4-2.9 6.9-2.9 2.9 0 5.2.9 6.8 2.7 1.6 1.8 2.4 4.3 2.4 7.5v.6h-13.4zM63.9 30l5.8-20.1H72L78.1 30 84 10.2h4.7l-9 27.2h-3.5l-5.6-18.3-5.5 18.3h-3.5l-8.5-27.2h4.8l6 19.8"/><path fill-rule="evenodd" clip-rule="evenodd" fill="#fff" d="M39.3 27.6c-3 1.7-6.6 5.1-8.5 7.6-6.4 8.1-14.1 5.6-16.2 4.3C10.7 37.3 8 32.9 6.7 29L2.1 15.5c-.3-1 .2-2 1.2-2.3.5-.2 1-.1 1.5.1.2.1.4.3.6.5.1.1.7 1 2.2 3.4.8 1.2 2.5 3.6 3.9 4.4.3.2.6.3.9.3 2.3.1 3.5-3.8 5.2-10.2l2.2-8.2c.1-.5.4-.9.9-1.2.4-.3 1-.4 1.5-.2.2 0 .4.1.5.2.3.2.5.4.7.7.3.4.3 1 .2 1.5L21.5 15c-.4 1.9-.3 2.6.2 2.9 0 0 .1.1.2.1.7.3 1.1-.3 1.8-1.3l6.5-11c.6-.9 1.8-1.3 2.7-.7.9.5 1.2 1.7.7 2.7l-5.9 10.7c-.6 1.1-1.1 2.3-.4 2.9.1 0 .1.1.2.1.9.5 2.1-.8 2.6-1.3l6.7-7.5c.3-.4.8-.6 1.3-.7.4 0 .8 0 1.1.2.1.1.2.1.3.2.4.3.6.8.7 1.3 0 .5-.1 1-.5 1.4l-7.3 9.3c-.5.6-.6 1.3-.2 1.7l.3.3c.3.2.7.2 1.2 0l6.2-2.7c.4-.2.8-.2 1.3 0 .1 0 .2.1.2.1.3.2.5.4.7.8.2.4.2.8 0 1.3-.2.4-.5.7-.9.9-.4.1-1.1.5-1.9.9z"/></svg>